<?xml version="1.0" standalone="no"?>
<!DOCTYPE svg PUBLIC "-//W3C//DTD SVG 20010904//EN"
 "http://www.w3.org/TR/2001/REC-SVG-20010904/DTD/svg10.dtd">
<svg version="1.0" xmlns="http://www.w3.org/2000/svg"
 width="60.000000pt" height="60.000000pt" viewBox="0 0 60.000000 60.000000"
 preserveAspectRatio="xMidYMid meet">

<g transform="translate(0.000000,60.000000) scale(0.100000,-0.100000)"
fill="#000000" stroke="none">
<path d="M190 545 c0 -8 -9 -15 -20 -15 -13 0 -20 -7 -20 -20 0 -13 -7 -20
-20 -20 -13 0 -20 7 -20 20 0 18 -7 20 -55 20 l-55 0 0 -40 c0 -33 3 -40 20
-40 18 0 20 -7 20 -55 0 -42 3 -55 15 -55 11 0 15 -11 15 -40 0 -33 3 -40 20
-40 11 0 20 -7 20 -15 0 -8 -9 -15 -20 -15 -13 0 -20 -7 -20 -20 0 -11 -7 -20
-15 -20 -12 0 -15 -13 -15 -55 l0 -55 35 0 c24 0 35 5 35 15 0 8 9 15 20 15
18 0 20 -7 20 -55 l0 -55 55 0 c48 0 55 2 55 20 0 17 7 20 40 20 33 0 40 -3
40 -20 0 -18 7 -20 55 -20 l55 0 0 55 c0 48 2 55 20 55 11 0 20 -7 20 -15 0
-10 11 -15 35 -15 l35 0 0 55 c0 48 -2 55 -20 55 -13 0 -20 7 -20 20 0 11 -7
20 -15 20 -8 0 -15 7 -15 15 0 8 7 15 15 15 11 0 15 11 15 40 0 33 3 40 20 40
18 0 20 7 20 55 0 48 2 55 20 55 17 0 20 7 20 40 l0 40 -55 0 c-48 0 -55 -2
-55 -20 0 -13 -7 -20 -20 -20 -13 0 -20 7 -20 20 0 13 -7 20 -20 20 -11 0 -20
7 -20 15 0 12 -19 15 -110 15 -91 0 -110 -3 -110 -15z m220 -35 c0 -13 7 -20
20 -20 13 0 20 -7 20 -20 0 -13 7 -20 20 -20 13 0 20 7 20 20 0 16 7 20 35 20
28 0 35 -4 35 -20 0 -13 -7 -20 -20 -20 -18 0 -20 -7 -20 -55 0 -42 -3 -55
-15 -55 -11 0 -15 -11 -15 -40 0 -33 -3 -40 -20 -40 -11 0 -20 -7 -20 -15 0
-8 -9 -15 -20 -15 -13 0 -20 -7 -20 -20 0 -13 7 -20 20 -20 13 0 20 7 20 20 0
13 7 20 20 20 13 0 20 -7 20 -20 0 -11 7 -20 15 -20 11 0 15 -11 15 -40 0 -29
-4 -40 -15 -40 -8 0 -15 9 -15 20 0 13 -7 20 -20 20 -13 0 -20 -7 -20 -20 0
-13 -7 -20 -20 -20 -16 0 -20 -7 -20 -35 0 -28 -4 -35 -20 -35 -13 0 -20 7
-20 20 0 18 -7 20 -75 20 -68 0 -75 -2 -75 -20 0 -11 -7 -20 -15 -20 -10 0
-15 11 -15 35 0 28 -4 35 -20 35 -13 0 -20 7 -20 20 0 13 -7 20 -20 20 -13 0
-20 -7 -20 -20 0 -13 -7 -20 -20 -20 -17 0 -20 7 -20 40 0 33 3 40 20 40 13 0
20 7 20 20 0 13 7 20 20 20 13 0 20 -7 20 -20 0 -13 7 -20 20 -20 13 0 20 7
20 20 0 13 -7 20 -20 20 -11 0 -20 7 -20 15 0 8 -9 15 -20 15 -17 0 -20 7 -20
40 0 33 -3 40 -20 40 -18 0 -20 7 -20 55 0 42 -3 55 -15 55 -8 0 -15 9 -15 20
0 16 7 20 35 20 28 0 35 -4 35 -20 0 -13 7 -20 20 -20 13 0 20 7 20 20 0 13 7
20 20 20 13 0 20 7 20 20 0 19 7 20 110 20 103 0 110 -1 110 -20z"/>
<path d="M150 320 c0 -13 7 -20 20 -20 13 0 20 7 20 20 0 13 -7 20 -20 20 -13
0 -20 -7 -20 -20z"/>
<path d="M220 300 c0 -33 3 -40 20 -40 11 0 20 -7 20 -15 0 -11 11 -15 40 -15
29 0 40 4 40 15 0 8 7 15 15 15 11 0 15 11 15 40 0 29 -4 40 -15 40 -11 0 -15
-11 -15 -40 l0 -40 -40 0 -40 0 0 40 c0 33 -3 40 -20 40 -17 0 -20 -7 -20 -40z"/>
<path d="M410 320 c0 -13 7 -20 20 -20 13 0 20 7 20 20 0 13 -7 20 -20 20 -13
0 -20 -7 -20 -20z"/>
<path d="M190 170 c0 -19 7 -20 110 -20 103 0 110 1 110 20 0 19 -7 20 -110
20 -103 0 -110 -1 -110 -20z"/>
</g>
</svg>
